<mxfile host="app.diagrams.net" modified="2024-04-15T20:09:22.700Z" agent="Mozilla/5.0 (Macintosh; Intel Mac OS X 10.15; rv:124.0) Gecko/20100101 Firefox/124.0" version="24.2.5" etag="LvDz4m9GTPpDc6uIZb2P" type="github">
  <diagram name="Page-1" id="H41PL_Xw4tFoNiz2_5BC">
    <mxGraphModel>
      <root>
        <mxCell id="0" />
        <mxCell id="1" parent="0" />
      </root>
    </mxGraphModel>
  </diagram>
</mxfile>
